<svg
  width="129"
  height="60"
  viewBox="0 0 129 60"
  fill="none"
  xmlns="http://www.w3.org/2000/svg"
>
  <path
    d="M32.2679 43.6614H30.4829C30.3277 43.6614 30.2656 43.7235 30.2656 43.8788V51.4764C30.2656 51.6316 30.3277 51.6937 30.4829 51.6937H32.2679C32.4231 51.6937 32.5007 51.6316 32.5007 51.4764V43.8788C32.5007 43.7235 32.4231 43.6614 32.2679 43.6614Z"
    fill="#1A2928"
  />
  <path
    d="M105.227 43.9175H104.358C104.249 43.9175 104.172 43.9952 104.156 44.2125L103.535 48.8921H106.05L105.429 44.2125C105.413 43.9952 105.32 43.9175 105.227 43.9175Z"
    fill="#1A2928"
  />
  <path
    d="M66.0821 43.7079H64.0488V46.1293H65.989C66.1597 46.0361 66.2373 45.8965 66.2373 45.5705V43.9408C66.2373 43.7855 66.1908 43.7079 66.0821 43.7079Z"
    fill="#1A2928"
  />
  <path
    d="M0 35.8619V59.4854H128.361V35.8619H0ZM26.363 45.5317H23.8795V43.9641C23.8795 43.7468 23.8019 43.6536 23.6312 43.6536H21.8618C21.7066 43.6536 21.6445 43.7468 21.6445 43.9641V51.4686C21.6445 51.6238 21.7066 51.6859 21.8618 51.6859H23.6622C23.8175 51.6859 23.8795 51.6238 23.8795 51.4686V49.3112H26.363V51.7635C26.363 53.0052 25.3696 53.9986 24.1279 53.9986H21.3961C20.1544 53.9986 19.1611 53.0052 19.1611 51.7635V43.576C19.1611 42.3343 20.1544 41.341 21.3961 41.341H24.1279C25.3696 41.341 26.363 42.3343 26.363 43.576V45.5317ZM34.9851 51.7635C34.9851 53.0052 33.9917 53.9986 32.75 53.9986H30.0182C28.7765 53.9986 27.7832 53.0052 27.7832 51.7635V43.576C27.7832 42.3343 28.7765 41.341 30.0182 41.341H32.75C33.9917 41.341 34.9851 42.3343 34.9851 43.576V51.7635ZM44.7635 53.8434H40.6426L39.1525 43.9253H39.0128L39.1215 53.8434H36.6381V41.4419H40.7745L42.2335 51.36H42.3887L42.2801 41.4419H44.7635V53.8434ZM52.8734 44.2124H49.0784V45.7645H52.4388V48.248H49.0784V53.8434H46.595V41.4419H52.8734V44.2202V44.2124ZM60.1917 43.9175H56.4122V46.2302H59.7726V48.7136H56.4122V51.3677H60.1917V53.8511H53.9288V41.4496H60.1917V43.933V43.9175ZM68.8448 53.8434H66.3614V49.3189C66.3614 48.9309 66.2528 48.6981 66.1441 48.6049H64.0487V53.8434H61.5653V41.4419H66.8658C67.8902 41.4419 68.7284 42.28 68.7284 43.3044V45.5395C68.7284 46.3466 68.2317 47.0606 67.5333 47.371C68.2938 47.6504 68.8371 48.3799 68.8371 49.2335V53.8511L68.8448 53.8434ZM76.7064 43.9175H72.9269V46.2302H76.2873V48.7136H72.9269V51.3677H76.7064V53.8511H70.4435V41.4496H76.7064V43.933V43.9175ZM86.2054 53.8434H82.0845L80.5944 43.9253H80.4548L80.5634 53.8434H78.08V41.4419H82.2164L83.6754 51.36H83.8306L83.722 41.4419H86.2054V53.8434ZM95.0603 45.5317H92.5769V43.9641C92.5769 43.7468 92.4993 43.6536 92.3286 43.6536H90.5591C90.4039 43.6536 90.3418 43.7468 90.3418 43.9641V51.4686C90.3418 51.6238 90.4039 51.6859 90.5591 51.6859H92.3596C92.5148 51.6859 92.5769 51.6238 92.5769 51.4686V49.3112H95.0603V51.7635C95.0603 53.0052 94.067 53.9986 92.8253 53.9986H90.0935C88.8518 53.9986 87.8584 53.0052 87.8584 51.7635V43.576C87.8584 42.3343 88.8518 41.341 90.0935 41.341H92.8253C94.067 41.341 95.0603 42.3343 95.0603 43.576V45.5317ZM99.1967 53.8434H96.7133V41.4419H99.1967V53.8434ZM106.701 53.8434L106.375 51.3755H103.217L102.891 53.8434H100.407L102.285 41.9696C102.332 41.7212 102.627 41.4419 102.953 41.4419H106.624C106.95 41.4419 107.245 41.7057 107.291 41.9696L109.185 53.8434H106.701Z"
    fill="#1A2928"
  />
  <path
    d="M2.60077 18.1134C2.60077 17.9349 2.60077 17.6633 2.60853 17.3684C3.50877 17.3684 6.57423 17.3839 8.04099 17.3684C8.04099 17.5003 8.04099 17.6244 8.04099 17.7409C8.04099 18.967 8.52215 19.7509 9.56984 19.7509C10.8348 19.7509 11.2073 18.3695 11.2073 13.488L11.2461 12.223H11.1685C10.796 14.1244 9.56208 15.1333 7.44342 15.1333C3.86575 15.1333 2.18945 12.7119 2.18945 8.35045C2.18945 3.01888 4.75823 0 9.67849 0C15.4524 0 17.6875 4.05883 17.6875 12.3006C17.6875 21.691 14.8937 25.1213 9.67849 25.1213C4.83584 25.1213 2.60077 22.5525 2.60077 18.1134ZM11.1375 8.12541C11.0599 6.22405 10.5011 5.25396 9.56984 5.25396C8.56096 5.25396 8.00219 6.26284 8.00219 8.35045C8.00219 10.1432 8.52215 10.958 9.45343 10.958C10.5322 10.958 11.1297 9.98797 11.1297 8.12541H11.1375Z"
    fill="#1A2928"
  />
  <path
    d="M19.9766 0.302666H27.9157C33.4335 0.302666 36.0023 3.09651 36.0023 9.28176C36.0023 15.467 33.7673 18.1134 28.7384 18.1134H26.7283V24.8186H19.9843V0.294922L19.9766 0.302666ZM28.1408 13.6821C29.4446 13.6821 30.0033 12.6421 30.0033 9.91814C30.0033 7.19414 29.4058 6.0766 27.9933 6.0766H26.7283V13.6821H28.1408Z"
    fill="#1A2928"
  />
  <path
    d="M37.5703 16.2508V0.302673H44.3143V16.0646C44.3143 18.2298 45.0594 19.1223 46.4019 19.1223C47.6669 19.1223 48.3809 18.2298 48.3809 16.0646V0.302673H53.9686V16.2508C53.9686 22.3662 51.136 25.1213 45.7733 25.1213C40.4107 25.1213 37.5781 22.3662 37.5781 16.2508H37.5703Z"
    fill="#1A2928"
  />
  <path
    d="M56.2656 0.302673H65.2835L68.8999 14.2408H68.9387L68.4886 0.302673H74.2625V24.8264H66.3234L61.5894 8.42808H61.5506L62.0706 24.8264H56.2578V0.302673H56.2656Z"
    fill="#1A2928"
  />
  <path
    d="M79.9206 6.11542H75.9316V0.302673H90.6148V6.11542H86.6646V24.8264H79.9206V6.11542Z"
    fill="#1A2928"
  />
  <path
    d="M91.4219 12.4481C91.4219 4.09763 94.1769 0 100.479 0C106.78 0 109.458 4.09763 109.458 12.4481C109.458 20.7986 106.772 25.1213 100.479 25.1213C94.1847 25.1213 91.4219 21.0624 91.4219 12.4481ZM102.566 12.4481C102.566 7.60545 101.93 5.74288 100.479 5.74288C99.0273 5.74288 98.3522 7.60545 98.3522 12.4481C98.3522 17.2908 99.0196 19.3784 100.479 19.3784C101.938 19.3784 102.566 17.477 102.566 12.4481Z"
    fill="#1A2928"
  />
  <path
    d="M111.062 18.1134C111.062 17.8806 111.078 17.609 111.094 17.3684C111.598 17.3684 116.216 17.3684 116.542 17.3684C116.542 17.4227 116.542 17.4615 116.542 17.477C116.542 18.8895 117.1 19.6422 118.179 19.6422C119.258 19.6422 119.747 18.4161 119.747 16.3285C119.747 14.2408 119.266 13.2708 118.257 13.2708C117.434 13.2708 116.875 13.977 116.689 15.3196L111.357 14.7996L112.141 0.302673H125.039V6.15422H117.248L116.875 11.5556L116.953 11.5944C117.55 9.87934 118.854 9.02567 120.794 9.02567C124.411 9.02567 126.196 11.4082 126.196 16.406C126.196 21.66 123.813 25.129 118.815 25.129C113.336 25.129 111.062 22.2188 111.062 18.1212V18.1134Z"
    fill="#1A2928"
  />
</svg>
